# xmcd
#
# Track frame offsets: 
#        150
#        26148
#        46258
#        62713
#        76488
#        93350
#        109938
#        125913
#        139570
#        158643
#        181675
#
# Disc length: 2699 seconds
#
# Revision: 6
# Processed by: cddbd v1.5.2PL0 Copyright (c) Steve Scherf et al.
# Submitted via: ExactAudioCopy v0.95b3
#
DISCID=8d0a890b
DTITLE=Etta James - The Right Time
DYEAR=1992
DGENRE=Blues
TTITLE0=I Sing The Blues
TTITLE1=Love And Happiness
TTITLE2=Evening Of Love
TTITLE3=Wet Match
TTITLE4=You're Taking Up Another Man's Place
TTITLE5=Give It Up - Etta James Duet with Steve Winwood
TTITLE6=Let It Rock
TTITLE7=Ninety Nine And A Half (Won't Do)
TTITLE8=You've Got Me
TTITLE9=Nighttime Is The Right Time
TTITLE10=Down Home Blues
EXTD=
EXTT0=
EXTT1=
EXTT2=
EXTT3=
EXTT4=
EXTT5=
EXTT6=
EXTT7=
EXTT8=
EXTT9=
EXTT10=
PLAYORDER=
